<svg width="0" height="0" class="hidden">
    <symbol xmlns="http://www.w3.org/2000/svg" xmlns:xlink="http://www.w3.org/1999/xlink" viewBox="0 0 650 650" id="graphics-logo">
        <polygon fill="currentcolor" points="444.18 444.32 406.81 444.32 382.54 354.04 330.36 444.33 288.64 444.33 369.29 304.57 356.31 256.05 247.56 444.36 205.82 444.36 343.64 205.64 380.18 205.64 396.18 264.95 433.88 264.95 408.14 309.71 444.18 444.32"/>
    </symbol>
    <symbol xmlns="http://www.w3.org/2000/svg" id="icon-arrow-left-short" viewBox="0 0 16 16">
        <path fill-rule="evenodd" fill="currentcolor" d="M12 8a.5.5 0 0 1-.5.5H5.707l2.147 2.146a.5.5 0 0 1-.708.708l-3-3a.5.5 0 0 1 0-.708l3-3a.5.5 0 1 1 .708.708L5.707 7.5H11.5a.5.5 0 0 1 .5.5z"/>
    </symbol>
    <symbol xmlns="http://www.w3.org/2000/svg" id="icon-wallet2" viewBox="0 0 16 16">
        <path fill="currentcolor" d="M12.136.326A1.5 1.5 0 0 1 14 1.78V3h.5A1.5 1.5 0 0 1 16 4.5v9a1.5 1.5 0 0 1-1.5 1.5h-13A1.5 1.5 0 0 1 0 13.5v-9a1.5 1.5 0 0 1 1.432-1.499L12.136.326zM5.562 3H13V1.78a.5.5 0 0 0-.621-.484L5.562 3zM1.5 4a.5.5 0 0 0-.5.5v9a.5.5 0 0 0 .5.5h13a.5.5 0 0 0 .5-.5v-9a.5.5 0 0 0-.5-.5h-13z"/>
    </symbol>
    <symbol xmlns="http://www.w3.org/2000/svg" id="icon-arrow-clockwise" viewBox="0 0 16 16">
        <path fill="currentcolor" fill-rule="evenodd" d="M8 3a5 5 0 1 0 4.546 2.914.5.5 0 0 1 .908-.417A6 6 0 1 1 8 2v1z"/>
        <path fill="currentcolor" d="M8 4.466V.534a.25.25 0 0 1 .41-.192l2.36 1.966c.12.1.12.284 0 .384L8.41 4.658A.25.25 0 0 1 8 4.466z"/>
    </symbol>
    <symbol xmlns="http://www.w3.org/2000/svg" id="icon-gear-fill" viewBox="0 0 16 16">
        <path fill="currentcolor" d="M9.405 1.05c-.413-1.4-2.397-1.4-2.81 0l-.1.34a1.464 1.464 0 0 1-2.105.872l-.31-.17c-1.283-.698-2.686.705-1.987 1.987l.169.311c.446.82.023 1.841-.872 2.105l-.34.1c-1.4.413-1.4 2.397 0 2.81l.34.1a1.464 1.464 0 0 1 .872 2.105l-.17.31c-.698 1.283.705 2.686 1.987 1.987l.311-.169a1.464 1.464 0 0 1 2.105.872l.1.34c.413 1.4 2.397 1.4 2.81 0l.1-.34a1.464 1.464 0 0 1 2.105-.872l.31.17c1.283.698 2.686-.705 1.987-1.987l-.169-.311a1.464 1.464 0 0 1 .872-2.105l.34-.1c1.4-.413 1.4-2.397 0-2.81l-.34-.1a1.464 1.464 0 0 1-.872-2.105l.17-.31c.698-1.283-.705-2.686-1.987-1.987l-.311.169a1.464 1.464 0 0 1-2.105-.872l-.1-.34zM8 10.93a2.929 2.929 0 1 1 0-5.86 2.929 2.929 0 0 1 0 5.858z"/>
    </symbol>
    <symbol xmlns="http://www.w3.org/2000/svg" id="icon-bricks" viewBox="0 0 16 16">
        <path fill="currentcolor" d="M0 .5A.5.5 0 0 1 .5 0h15a.5.5 0 0 1 .5.5v3a.5.5 0 0 1-.5.5H14v2h1.5a.5.5 0 0 1 .5.5v3a.5.5 0 0 1-.5.5H14v2h1.5a.5.5 0 0 1 .5.5v3a.5.5 0 0 1-.5.5H.5a.5.5 0 0 1-.5-.5v-3a.5.5 0 0 1 .5-.5H2v-2H.5a.5.5 0 0 1-.5-.5v-3A.5.5 0 0 1 .5 6H2V4H.5a.5.5 0 0 1-.5-.5v-3zM3 4v2h4.5V4H3zm5.5 0v2H13V4H8.5zM3 10v2h4.5v-2H3zm5.5 0v2H13v-2H8.5zM1 1v2h3.5V1H1zm4.5 0v2h5V1h-5zm6 0v2H15V1h-3.5zM1 7v2h3.5V7H1zm4.5 0v2h5V7h-5zm6 0v2H15V7h-3.5zM1 13v2h3.5v-2H1zm4.5 0v2h5v-2h-5zm6 0v2H15v-2h-3.5z"/>
    </symbol>
</svg>