<svg width="0" height="0" class="hidden">
    <symbol xmlns="http://www.w3.org/2000/svg" xmlns:xlink="http://www.w3.org/1999/xlink" viewBox="0 0 650 650" id="graphics-logo">
        <polygon fill="currentcolor" points="444.18 444.32 406.81 444.32 382.54 354.04 330.36 444.33 288.64 444.33 369.29 304.57 356.31 256.05 247.56 444.36 205.82 444.36 343.64 205.64 380.18 205.64 396.18 264.95 433.88 264.95 408.14 309.71 444.18 444.32"/>
    </symbol>
    <symbol xmlns="http://www.w3.org/2000/svg" id="icon-arrow-left-short" viewBox="0 0 16 16">
        <path fill-rule="evenodd" fill="currentcolor" d="M12 8a.5.5 0 0 1-.5.5H5.707l2.147 2.146a.5.5 0 0 1-.708.708l-3-3a.5.5 0 0 1 0-.708l3-3a.5.5 0 1 1 .708.708L5.707 7.5H11.5a.5.5 0 0 1 .5.5z"/>
    </symbol>
    <symbol xmlns="http://www.w3.org/2000/svg" id="icon-wallet2" viewBox="0 0 16 16">
        <path fill="currentcolor" d="M12.136.326A1.5 1.5 0 0 1 14 1.78V3h.5A1.5 1.5 0 0 1 16 4.5v9a1.5 1.5 0 0 1-1.5 1.5h-13A1.5 1.5 0 0 1 0 13.5v-9a1.5 1.5 0 0 1 1.432-1.499L12.136.326zM5.562 3H13V1.78a.5.5 0 0 0-.621-.484L5.562 3zM1.5 4a.5.5 0 0 0-.5.5v9a.5.5 0 0 0 .5.5h13a.5.5 0 0 0 .5-.5v-9a.5.5 0 0 0-.5-.5h-13z"/>
    </symbol>
</svg>