<?xml version="1.0" standalone="no"?>
<!DOCTYPE svg PUBLIC "-//W3C//DTD SVG 20010904//EN"
 "http://www.w3.org/TR/2001/REC-SVG-20010904/DTD/svg10.dtd">
<svg version="1.0" xmlns="http://www.w3.org/2000/svg"
 width="700.000000pt" height="700.000000pt" viewBox="0 0 700.000000 700.000000"
 preserveAspectRatio="xMidYMid meet">
<metadata>
Created by potrace 1.14, written by Peter Selinger 2001-2017
</metadata>
<g transform="translate(0.000000,700.000000) scale(0.100000,-0.100000)"
fill="#000000" stroke="none">
<path d="M3656 4710 c-23 -41 -78 -136 -121 -210 -42 -74 -86 -151 -97 -170
-52 -90 -319 -551 -337 -581 -12 -19 -24 -41 -28 -49 -4 -8 -20 -37 -36 -65
-25 -42 -179 -309 -237 -410 -109 -189 -288 -498 -307 -527 -12 -21 -23 -39
-23 -41 0 -2 -54 -98 -120 -212 -67 -114 -122 -213 -123 -218 -1 -8 69 -11
218 -12 l220 -1 56 96 c65 111 351 605 385 667 13 23 80 138 148 255 180 311
276 477 297 515 24 42 37 64 149 258 51 88 103 177 115 198 l22 38 28 -103
c15 -57 43 -159 61 -228 18 -69 37 -139 42 -157 10 -30 -1 -50 -180 -360 -104
-180 -200 -346 -212 -368 -13 -22 -114 -197 -225 -389 -110 -191 -201 -350
-201 -353 0 -3 -9 -16 -20 -30 -11 -14 -20 -29 -20 -32 0 -4 99 -6 220 -6 181
0 222 3 233 15 8 8 94 155 192 325 98 171 188 326 199 346 135 233 162 277
167 271 4 -4 21 -63 39 -132 18 -69 50 -188 71 -265 49 -183 94 -350 139 -525
l9 -35 201 -1 c134 0 200 3 200 10 0 6 -9 43 -20 81 -10 39 -44 162 -74 275
-30 113 -64 240 -75 283 -12 42 -30 110 -40 150 -11 39 -36 133 -56 207 -21
74 -39 142 -41 150 -2 8 -10 40 -18 70 -8 30 -25 94 -37 141 l-22 86 102 177
c56 97 114 198 128 224 14 26 29 51 34 56 5 6 9 13 9 16 0 4 -90 7 -200 7
-110 0 -202 2 -203 4 -2 2 -42 146 -88 319 l-85 315 -197 0 -198 0 -43 -75z"/>
</g>
</svg>
